<svg width="250" height="250" viewBox="0 0 250 250" fill="none" xmlns="http://www.w3.org/2000/svg">
<path d="M155.869 90.0325C155.085 85.5903 155.011 81.3873 157.636 77.4953C162.301 70.5802 175.249 71.2254 181.339 75.5229C184.431 77.6964 186.519 81.023 187.13 84.7521C187.722 88.2152 187.237 90.305 186.51 93.6485C191.213 92.4692 195.864 92.1898 200.142 94.7588C207.763 99.3346 207.732 110.664 200.258 115.368C199.172 116.052 197.822 116.632 196.659 117.163C199.389 121.074 200.749 125.325 199.924 130.117C199.419 133.225 197.698 136.006 195.139 137.843C188.668 142.421 180.918 139.371 175.699 134.43C171.771 147.505 158.826 145.736 152.158 135.827C140.86 154.103 131.43 173.469 124.011 193.632C139.735 170.943 155.851 173.667 179.345 163.478C173.305 175.7 169.026 188.864 158.083 197.739C146.773 206.912 134.419 209.519 120.225 207.184C117.165 220.233 116.498 234.036 114.103 247.208C113.898 248.336 113.455 249.371 112.494 249.996C109.155 250.092 109.139 248.209 104.942 247.509L105.33 237.349C91.9985 239.345 80.9979 237.377 69.8683 229.34C56.9122 219.985 53.6187 207.026 46.7253 193.681C72.401 204.251 90.5544 201.995 105.184 229.236C102.834 210.999 99.8021 199.334 91.9151 182.297C81.5163 184.231 72.565 183.007 63.6192 177.035C52.9324 169.901 49.2668 158.894 44 147.77C52.0187 151.058 55.9054 152.248 64.3325 154.491C60.5689 149.218 59.6509 145.241 61.7173 139.075C61.2884 138.995 60.8603 138.91 60.433 138.821C50.6587 136.782 43.2554 127.598 45.4259 117.514C46.2312 113.671 48.5387 110.309 51.8361 108.175C56.5451 105.157 61.2382 105.465 66.4421 106.573C64.3889 92.2886 72.6442 86.327 86.6985 89.5536C96.4855 91.8008 99.5289 100.75 97.0672 110.004C105.326 108.172 111.792 109.09 115.829 117.108C115.611 114.4 113.758 107.394 113.048 104.583C111.213 97.3228 109.351 90.3602 107.856 82.9919C108.818 82.2818 109.823 81.4533 110.768 80.7065C113.901 93.1237 118.208 105.201 121.169 117.326C124.796 96.2971 136.733 90.633 148.016 73.4683C148.521 78.787 149.291 83.9216 150.06 89.2009L155.869 90.0325ZM85.4556 153.851C87.9129 166.38 94.9839 178.575 100.157 190.217C105.864 203.063 108.088 212.915 110.158 226.551C110.979 223.206 111.593 219.725 112.226 216.325C117.228 189.447 122.406 161.947 118.916 134.537C118.378 130.313 117.787 125.147 116.595 121.093C115.88 128.014 113.872 130.971 107.239 133.503C118.608 149.752 100.841 165.273 86.2531 150.742L85.4556 153.851ZM150.757 132.708C149.564 128.547 149.779 126.552 151.105 122.491C147.95 122.075 146.66 121.637 143.786 120.319C138.882 127.83 132.757 132.491 124.572 136.001C125.822 149.474 126.49 166.194 124.136 179.554C130.226 166.755 141.987 143.061 150.757 132.708ZM76.6568 160.127C80.8554 163.093 83.6525 165.942 86.8062 169.909C85.3162 165.352 84.1968 161.81 83.1248 157.157C80.6945 158.977 79.6318 159.459 76.6568 160.127Z" fill="#5CAC56"/>
<path d="M66.4421 106.573C64.3889 92.2892 72.6442 86.3276 86.6985 89.5543C96.4855 91.8014 99.5289 100.751 97.0673 110.004C105.326 108.173 111.792 109.09 115.829 117.108C115.962 118.016 116.292 120.348 116.595 121.094C115.88 128.014 113.872 130.971 107.239 133.504C118.608 149.753 100.841 165.274 86.2531 150.743L85.4556 153.852C84.7611 154.852 83.8644 156.235 83.1248 157.157C80.6945 158.977 79.6318 159.46 76.6568 160.128C70.7099 159.801 68.4277 158.788 64.3325 154.492C60.5689 149.219 59.6509 145.242 61.7173 139.076C61.2884 138.995 60.8603 138.911 60.433 138.821C50.6587 136.782 43.2554 127.599 45.426 117.514C46.2312 113.672 48.5388 110.309 51.8361 108.176C56.5451 105.158 61.2382 105.466 66.4421 106.573Z" fill="#D65C61"/>
<path d="M78.3433 117.045C78.5904 117.043 78.8375 117.049 79.0837 117.063C79.9137 117.112 86.8345 118.808 87.2718 119.36C89.0116 121.554 92.4205 125.901 92.2368 128.777C91.3624 130.677 89.7601 130.346 89.2479 131.241C87.6347 134.057 89.3864 133.759 86.2203 135.851C84.4655 135.624 78.9884 134.697 77.8118 133.571C76.5955 128.034 68.8744 129.128 74.7009 122.806C76.0041 121.392 73.3437 119.858 78.3433 117.045Z" fill="#201E20"/>
<path d="M82.239 110.553C84.4531 110.54 90.5043 112.264 88.1766 115.015C86.6306 115.087 87.0213 115.01 85.4301 114.112C83.4549 112.74 80.9593 114.232 78.8733 113.226L78.9077 112.619C79.953 111.291 80.6845 111.131 82.239 110.553Z" fill="#594991"/>
<path d="M68.0352 136.923C71.1476 137.037 70.9373 140.2 73.4695 142.026C74.7063 142.918 75.4197 143.412 75.6918 144.83C75.2911 144.858 74.9232 144.878 74.5199 144.873C72.7592 144.861 71.0812 144.122 69.883 142.832C68.3313 141.18 67.9638 139.1 68.0352 136.923Z" fill="#594991"/>
<path d="M68.5257 125.262L70.2358 125.652C71.4788 127.059 70.567 128.348 71.1151 130.017C71.6706 131.711 73.2687 133.033 73.1737 134.924C68.0135 134.274 67.9768 129.261 68.5257 125.262Z" fill="#594991"/>
<path d="M99.8152 127.636C100.174 127.766 100.749 128.084 101.106 128.266C102.875 131.353 102.242 134.822 99.6368 137.183C99.1563 137.098 98.9609 136.828 98.6023 136.486C98.5896 134.806 98.8034 128.745 99.8152 127.636Z" fill="#594991"/>
<path d="M75.2766 138.551C76.6666 138.511 81.7744 139.9 83.7963 139.573C84.3507 139.484 84.6629 140.794 84.8486 141.342C80.5743 143.203 77.2376 143.211 75.2766 138.551Z" fill="#594991"/>
<path d="M91.5399 142.623C92.1201 142.444 92.2973 142.582 92.9033 142.799L93.2172 143.691C92.3896 146.277 88.9282 146.323 86.7244 146.098C85.627 145.574 85.217 145.446 84.4844 144.489L84.628 143.919C86.6738 143.085 88.309 143.972 91.3956 142.684L91.5399 142.623Z" fill="#594991"/>
<path d="M64.8337 119.081C66.1531 119.522 65.8157 119.216 66.6251 120.233C66.7923 122.342 66.5383 126.648 65.8968 128.691C62.2705 126.927 63.4753 121.958 64.8337 119.081Z" fill="#594991"/>
<path d="M92.813 134.225C94.1432 134.437 94.5145 134.774 94.9492 135.963C94.7006 137.959 93.216 139.142 91.768 140.384L90.1259 140.128L89.6843 139.451C89.8908 138.496 91.9182 136.051 92.813 134.225Z" fill="#594991"/>
<path d="M93.8576 120.292L95.1183 120.494C97.9153 122.557 97.6559 125.591 96.3072 128.433C95.5263 128.507 95.8324 128.574 95.1503 128.169C94.9419 127.256 93.7935 120.789 93.8576 120.292Z" fill="#594991"/>
<path d="M84.8228 105.61C87.7846 105.258 93.4652 105.482 92.687 109.694C92.1172 109.605 85.3238 106.744 84.8297 106.453L84.8228 105.61Z" fill="#594991"/>
<path d="M71.7362 114.188C72.9123 114.382 72.5912 114.15 73.2324 114.981C73.1 116.716 71.0556 118.121 70.2087 121.367L70.1666 121.533C69.3085 121.519 69.6455 121.606 68.8133 120.896C68.1737 118.289 69.9806 115.891 71.7362 114.188Z" fill="#594991"/>
<path d="M75.4718 106.952C76.201 106.879 76.4117 107.041 77.078 107.368L77.1571 108.154C76.3971 109.136 73.6344 110.832 72.1803 112.138L71.8842 112.296L71.3141 112.123L71.2554 111.286C72.2752 108.918 73.3638 108.153 75.4718 106.952Z" fill="#594991"/>
<path d="M91.696 113.509C94.6267 113.696 97.8699 114.477 97.3928 117.968C95.3724 117.927 92.0724 115.742 91.696 113.509Z" fill="#594991"/>
<path d="M60.7078 129.228L61.5798 129.517C62.768 130.698 63.5693 132.505 63.9276 134.124C62.2109 133.692 60.6341 131.007 60.7078 129.228Z" fill="#594991"/>
<path d="M155.87 90.0325C155.085 85.5903 155.011 81.3873 157.637 77.4953C162.302 70.5802 175.249 71.2254 181.339 75.5229C184.432 77.6964 186.519 81.023 187.13 84.7521C187.722 88.2152 187.237 90.305 186.51 93.6485C191.214 92.4692 195.865 92.1898 200.142 94.7588C207.763 99.3346 207.732 110.664 200.259 115.368C199.173 116.052 197.823 116.632 196.659 117.163C199.389 121.074 200.749 125.325 199.925 130.117C199.419 133.225 197.698 136.006 195.139 137.843C188.669 142.421 180.918 139.371 175.699 134.43C171.771 147.505 158.826 145.736 152.159 135.827L150.757 132.708C149.564 128.547 149.779 126.552 151.106 122.491C147.95 122.075 146.66 121.637 143.787 120.319C143.051 119.786 142.328 119.239 141.615 118.676C129.526 109.042 132.667 90.9356 150.06 89.2009L155.87 90.0325Z" fill="#D65C61"/>
<path d="M167.09 100.822C167.197 100.81 167.303 100.799 167.41 100.789C169.119 100.63 177.31 102.533 177.411 103.229C178.152 108.31 186.318 110.422 178.638 114.752C178.907 114.601 177.29 118.202 176.518 119.033C172.751 119.534 174.764 118.511 171.095 118.49C170.652 118.499 167.547 118.232 167.488 117.718C166.881 112.36 161.56 114.244 162.129 108.892C162.977 107.346 164.098 106.959 164.247 105.42C164.511 102.693 164.989 102.38 167.09 100.822Z" fill="#201E20"/>
<path d="M170.592 94.3189C173.356 94.1321 177.964 94.4759 178.184 98.0398L177.541 98.7576L176.642 98.7113C173.407 96.3345 169.482 97.7762 168.43 96.3626C169.028 95.1443 169.403 95.1474 170.592 94.3189Z" fill="#594991"/>
<path d="M157.612 120.287C158.493 120.391 158.655 120.395 159.407 120.924C161.286 125.312 164.648 126.238 165.164 128.206C159.985 129.014 156.969 125.257 157.612 120.287Z" fill="#594991"/>
<path d="M158.141 108.642C159.315 109.019 159.038 108.769 159.843 109.616C160.348 112.716 162.693 117.426 162.274 118.765C157.562 116.976 156.814 112.976 158.141 108.642Z" fill="#594991"/>
<path d="M188.497 111.409C189.392 111.454 189.538 111.455 190.376 111.862C192.362 114.468 191.442 118.108 189.554 120.507L188.367 120.455C187.642 119.623 188.411 112.896 188.497 111.409Z" fill="#594991"/>
<path d="M165.032 122.05C165.763 122.117 167.205 122.754 168.094 122.838C169.909 123.009 171.465 122.97 173.286 123.211C174.138 124.091 173.921 123.686 173.944 125.101C170.893 126.247 164.903 126.759 165.032 122.05Z" fill="#594991"/>
<path d="M181.239 125.956C181.937 126.009 182.22 126.33 182.781 126.763C182.668 129.662 178.208 129.811 176.051 129.711C174.727 128.899 174.583 129.088 173.92 127.834C175.214 126.592 177.832 127.538 181.239 125.956Z" fill="#594991"/>
<path d="M153.995 102.859C155.515 103.186 155.338 102.887 156.024 103.884C156.201 106.053 155.811 110.02 155.132 112.132C151.596 110.585 153.004 105.564 153.995 102.859Z" fill="#594991"/>
<path d="M183.532 103.713C187.227 104.355 186.997 109.186 185.704 111.92C185.021 112.075 185.256 112.041 184.516 111.805C183.903 109.984 182.979 105.427 183.532 103.713Z" fill="#594991"/>
<path d="M182.417 117.62C186.741 119.642 182.706 122.759 180.33 124.213C179.271 123.675 179.519 123.977 178.973 123.011C179.259 122.095 181.571 119.086 182.417 117.62Z" fill="#594991"/>
<path d="M174.731 88.9547C175.252 88.9196 175.774 88.9122 176.295 88.9327C178.284 89.0133 180.524 89.6435 181.897 91.1552C182.298 92.5012 182.279 91.986 181.506 93.4992C179.389 91.9802 174.849 90.5307 174.273 89.818L174.731 88.9547Z" fill="#594991"/>
<path d="M161.322 97.5742L162.335 98.0647C163.065 100.014 160.692 101.27 159.506 104.92C158.672 105.091 159.01 105.145 158.238 104.68C157.854 101.479 159.134 99.6605 161.322 97.5742Z" fill="#594991"/>
<path d="M165.208 90.2822C165.739 90.4069 166.035 90.6855 166.482 91.0112L166.579 91.7564C165.949 92.6602 163.108 94.3181 161.704 95.5368L161.109 95.8475L160.696 95.6067C160.426 93.214 163.401 91.3007 165.208 90.2822Z" fill="#594991"/>
<path d="M181.583 97.0918C184.248 97.3944 187.358 98.2766 186.743 101.442C185.259 101.458 181.884 99.5532 181.237 98.128C181.138 97.9107 181.469 97.3523 181.583 97.0918Z" fill="#594991"/>
<path d="M150.34 112.644C151.915 113.328 152.942 116.316 153.323 117.879C151.205 116.6 150.098 115.084 150.34 112.644Z" fill="#594991"/>
<path d="M90.4724 21.3547C89.6174 14.6169 90.0281 5.15352 96.9111 2.28892C114.412 -4.99492 132.571 5.76403 126.828 25.224C132.082 24.1565 137.009 23.7394 141.878 26.0105C152.205 30.8278 152.705 45.8418 142.797 51.3955C141.466 52.1418 140.36 52.5416 138.947 53.024C151.589 73.5531 132.066 90.2948 114.109 73.6808C113.265 76.8194 112.773 78.1624 110.769 80.7067C109.824 81.4535 108.818 82.282 107.857 82.9921C99.6294 87.4502 89.8146 82.7278 85.8869 74.7598C83.1292 69.1656 83.0687 65.4161 84.8922 59.5676C72.0742 57.6955 62.332 46.259 65.7996 33.2614C66.9784 28.7624 69.9075 24.9218 73.9352 22.5948C79.2637 19.5477 84.7671 19.7731 90.4724 21.3547Z" fill="#D65C61"/>
<path d="M104.616 33.7159C106.201 33.6661 112.384 35.3615 114.76 35.8357C116.853 37.7684 118.814 41.5557 120.344 44.0322C121.024 45.132 121.488 46.3187 121.111 47.6574C120.687 49.1602 117.958 49.6688 117.691 50.1987C116.173 53.2207 117.369 53.5897 114.27 55.7836C113.438 55.8118 106.901 54.3399 105.216 54.2654C102.898 54.1658 103.755 51.0141 102.98 50.3808C98.6961 46.7995 95.0873 45.5272 100.398 40.364C101.558 39.2372 98.7834 36.6851 104.616 33.7159Z" fill="#201E20"/>
<path d="M108.839 26.0342C111.975 25.8655 115.4 26.351 116.872 29.4584C116.887 30.8523 117.088 30.4035 116.214 31.3347C115.004 31.4462 115.466 31.5794 114.489 30.8226C110.803 28.3616 107.552 30.4428 105.308 28.7753L105.406 28.0618C106.502 26.9573 107.435 26.6474 108.839 26.0342Z" fill="#594991"/>
<path d="M92.8076 57.0298C93.1955 57.0703 94.4879 57.2401 94.6296 57.56C96.3099 61.357 98.5449 62.7425 101.348 65.4137L101.349 66.634C96.0883 66.8243 90.6586 62.3006 92.8076 57.0298Z" fill="#594991"/>
<path d="M93.7186 43.2969L94.9234 43.7928C95.49 44.2941 96.8291 51.5396 98.069 53.0987C98.5855 53.7474 98.1319 54.4509 97.825 55.0989C93.5457 53.0153 90.3877 47.3216 93.7186 43.2969Z" fill="#594991"/>
<path d="M130.107 46.1724C134.482 47.5644 132.987 54.6258 130.148 57.377L128.925 57.1454L128.517 56.4245C128.832 53.4638 128.632 48.6144 130.107 46.1724Z" fill="#594991"/>
<path d="M101.209 59.0894C100.176 59.1179 112.283 60.8086 111.419 60.5145C112.177 61.5878 111.987 61.1748 111.824 62.7081C111.02 63.0446 110.189 63.3136 109.34 63.5115C105.497 64.4354 102.173 63.2098 101.209 59.0894Z" fill="#594991"/>
<path d="M120.385 63.8477C121.664 63.9368 121.257 63.7438 122.244 64.4863L122.349 65.4407C121.172 68.3042 117.051 68.4856 114.427 67.9754C113.374 67.4695 112.444 67.1488 111.846 66.145L112.031 65.5708C114.474 64.4589 116.373 65.6526 120.385 63.8477Z" fill="#594991"/>
<path d="M88.7377 36.1602C90.3153 36.6738 90.0478 36.3191 90.7762 37.4954C90.8318 39.6311 90.7488 45.9585 89.4862 47.3987C85.9692 44.5256 86.5223 39.643 88.7377 36.1602Z" fill="#594991"/>
<path d="M121.945 53.9448C123.422 54.4037 123.645 54.5885 124.27 55.7023C124.408 58.4704 122.054 60.2881 119.798 61.3902C119.033 61.2907 118.864 61.1591 118.188 60.8095C117.794 59.2222 120.593 56.4073 121.945 53.9448Z" fill="#594991"/>
<path d="M123.363 37.2969C127.696 38.2443 127.781 43.8084 125.804 47.0493L124.894 47.1573L124.419 46.5873C124.14 43.3071 122.768 39.4298 123.363 37.2969Z" fill="#594991"/>
<path d="M112.714 19.9301C115.569 19.6473 120.031 20.0691 121.725 22.7308C121.855 24.1752 121.921 23.6539 120.987 25.0536C118.785 23.6697 112.772 21.4112 112.239 20.8055L112.714 19.9301Z" fill="#594991"/>
<path d="M97.1158 30.0859C98.2299 30.4591 97.838 30.1909 98.5896 31.1202C98.7336 32.7125 95.9265 35.0607 94.9588 39.0137C94.02 39.0013 94.318 39.0303 93.4572 38.424C92.1829 35.4636 94.936 31.8611 97.1158 30.0859Z" fill="#594991"/>
<path d="M101.15 21.6592C102.626 21.7696 102.351 21.5337 103.368 22.3284C103.085 24.0839 99.8501 25.6464 97.9204 27.2298C97.5869 27.5733 97.18 27.7296 96.7473 27.9449L96.2563 27.5108C96.1243 24.8978 99.1862 22.8023 101.15 21.6592Z" fill="#594991"/>
<path d="M120.539 29.4189C123.773 29.473 127.876 30.7527 127.231 34.6836C125.58 34.6859 122.983 32.9539 121.688 31.9062C120.444 30.9001 120.61 30.7002 120.539 29.4189Z" fill="#594991"/>
<path d="M83.5276 48.1519L84.8632 48.4409C86.2409 50.0532 86.9473 51.9508 87.6664 53.922L86.6157 53.6025C84.8134 51.9326 83.9966 50.5796 83.5276 48.1519Z" fill="#594991"/>
</svg>
