<svg width="250" height="250" viewBox="0 0 250 250" fill="none" xmlns="http://www.w3.org/2000/svg">
<g clip-path="url(#clip0_114_162)">
<path d="M104.934 64.6421C110.264 41.964 89.7607 39.2984 84.6525 21.4781C83.8683 18.7412 84.9978 13.9543 86.8087 11.5925C94.3862 1.70955 106.872 15.2606 115.533 14.7238C125.526 14.232 131.788 1.38836 141.095 -0.213707C152.822 -2.23238 160.668 14.4137 162.143 23.6089C164.17 36.2416 162.027 45.8822 154.826 56.1572C152.771 60.6722 148.908 67.8458 147.355 72.0711C152.538 66.4538 157.774 60.8862 163.064 55.3691C167.389 50.8148 171.047 46.5502 176.168 42.6515C183.154 37.3327 195.979 38.12 196.311 49.0639C196.278 56.3071 191.755 64.5949 198.632 70.23C204.865 75.3381 215.536 79.9852 214.814 89.7217C212.772 117.241 173.702 100.977 161.401 94.8046C170.988 103.164 184.411 116.704 185.026 129.993C185.968 150.349 166.721 136.496 158.371 138.538C146.364 141.475 136.938 165.679 122.956 148.776C120.603 143.355 120.49 143.513 120.072 137.418C120.185 136.233 120.746 133.587 120.98 132.31C122.081 125.089 124.708 116.009 127.622 109.361C127.063 108.02 127.132 107.517 126.046 106.877C124.505 107.843 124.024 111.054 122.238 111.797C112.377 121.109 112.973 140.683 101.228 148.09C95.8882 151.458 89.0854 152.845 82.9243 151.482C71.5304 150.518 75.363 138.286 70.1119 134.96C58.5504 127.637 49.5131 128.133 53.5724 110.379C57.0041 95.3696 74.2087 106.179 84.5485 105.835C93.1188 105.55 96.5888 105.132 104.054 100.53C90.7606 103.387 74.3586 101.181 63.0103 94.3787C51.4819 86.3901 58.817 82.2257 65.9516 76.2156C67.9791 74.5074 58.4535 55.2185 57.5785 50.9332C56.0592 43.4922 57.4566 32.951 66.2946 31.4133C80.9908 28.8565 86.8182 45.217 93.4848 54.6791C96.152 58.4503 101.203 62.2936 104.934 64.6421Z" fill="#6755A8"/>
<path d="M147.354 72.0715C152.537 66.4542 157.774 60.8867 163.063 55.3696C167.388 50.8152 171.047 46.5507 176.168 42.652C183.154 37.3331 195.979 38.1204 196.311 49.0644C196.278 56.3075 191.755 64.5953 198.631 70.2304C204.865 75.3386 215.536 79.9856 214.814 89.7222C212.772 117.241 173.702 100.977 161.401 94.8051C170.987 103.165 184.411 116.705 185.025 129.993C185.968 150.35 166.721 136.496 158.371 138.538C146.363 141.475 136.937 165.679 122.956 148.776C120.603 143.355 120.49 143.514 120.072 137.419C120.185 136.233 120.746 133.587 120.979 132.31C122.081 125.09 124.707 116.009 127.621 109.362L128.107 111.127L128.416 111.545L128.951 111.617C130.379 109.929 131.466 106.148 133.022 103.723C133.803 109.251 134.52 111.619 136.589 116.661C139.004 111.057 139.965 106.543 140.644 100.609C142.52 104.731 146.047 109.415 150.787 110.272C151.668 109.906 151.445 110.153 151.768 109.416C151.82 106.329 149.084 103.043 147.311 100.452C150.103 102.179 154.861 104.891 158.231 103.528L158.242 102.838C156.552 100.935 150.043 97.6048 147.528 96.212L156.474 93.3195C153.573 92.4234 147.342 91.2073 146.358 88.3082C147.041 85.6066 150.213 84.1542 152.635 82.6326L148.915 80.5961C152.271 76.1283 155.664 71.6787 158.831 67.0755C153.699 70.4941 147.309 76.3324 142.907 80.5729C144.216 77.8717 145.715 74.5264 147.354 72.0715Z" fill="#6755A8"/>
<path d="M127.622 109.361L128.108 111.127C127.706 115.207 122.937 129.459 120.98 132.31C122.081 125.089 124.708 116.009 127.622 109.361Z" fill="#3F863A"/>
<path d="M128.148 70.5038C124.706 62.3935 119.105 49.7645 117.37 41.4109L117.62 41.2925C121.677 46.2876 129.886 63.6709 132.454 69.8229C135.829 63.6084 137.718 59.0623 139.73 52.3498C142.624 60.848 140.906 65.4627 137.933 73.6541C142.119 68.6168 147.307 61.4097 152.059 56.9828C152.556 56.5196 154.106 56.2564 154.826 56.1575C152.771 60.6725 148.908 67.8461 147.355 72.0713C145.716 74.5263 144.216 77.8715 142.907 80.5728C147.309 76.3322 153.7 70.4939 158.831 67.0753C155.664 71.6785 152.272 76.1281 148.916 80.5959L152.635 82.6324C150.213 84.154 147.041 85.6064 146.358 88.308C147.342 91.2071 153.573 92.4232 156.474 93.3193L147.529 96.2118C150.043 97.6046 156.553 100.935 158.242 102.838L158.232 103.528C154.861 104.891 150.103 102.179 147.311 100.452C149.084 103.043 151.82 106.328 151.769 109.416C151.446 110.152 151.668 109.906 150.787 110.272C146.047 109.415 142.521 104.731 140.645 100.609C139.965 106.543 139.004 111.057 136.589 116.661C134.52 111.619 133.804 109.251 133.022 103.723C131.467 106.148 130.379 109.929 128.951 111.617L128.416 111.545L128.108 111.127L127.622 109.361C127.063 108.02 127.132 107.517 126.046 106.877C124.505 107.843 124.024 111.054 122.238 111.797C120.066 108.487 119.896 107.136 119.238 103.166C115.773 109.899 111.514 119.322 107.793 125.509C107.247 116.246 109.49 112.749 113.501 104.631C113.893 103.838 113.627 103.25 113.253 102.545C110.996 101.533 107.237 103.129 104.832 103.911C109.775 100.474 113.458 97.6915 118.064 93.8251C111.155 96.427 106.201 97.9188 99.0187 99.6469C103.86 95.8202 109.037 93.0826 114.656 90.6227C104.208 91.5983 98.1434 92.3114 88.4983 87.1958C97.264 87.0431 107.023 86.8386 115.727 86.2459L101.703 72.102C106.972 74.0544 109.893 74.7382 115.469 75.3375C112.39 71.7303 109.373 68.0696 106.421 64.3572C111.808 66.7248 118.836 70.5738 124.22 73.3375C119.594 68.3494 116.18 63.5347 113.603 57.1856C118.201 61.843 123.187 66.2376 128.148 70.5038Z" fill="#4D3486"/>
<path d="M118.426 85.3393C117.261 81.025 122.088 75.0808 126.249 74.1826C130.385 73.2898 134.128 74.57 137.662 76.5883C138.748 75.9417 140.148 76.2344 140.884 77.2609C141.62 78.2874 141.447 79.7067 140.486 80.5267C141.7 81.3106 141.94 82.2585 142.386 83.6675C142.689 85.8443 142.362 85.9593 141.284 87.8576L141.315 88.8315C139.395 90.0116 138.645 87.6163 136.902 90.149C137.581 92.2753 138.318 91.7451 137.744 93.1855L136.526 93.9479C136.377 94.6201 135.948 95.1963 135.347 95.5324C134.746 95.8685 134.03 95.9318 133.379 95.7067C131.919 96.6839 130.708 97.1537 128.924 97.3048C127.918 97.7146 127.539 97.77 126.486 97.9625C124.988 97.2854 125.032 96.8511 124.005 95.3656C122.81 94.4964 122.501 93.8589 121.992 92.5195C120.769 90.3638 119.088 87.6655 118.426 85.3393Z" fill="#201E20"/>
<path d="M124.005 95.3653C125.577 93.208 126.839 93.8061 127.667 92.9381C127.701 92.9029 127.167 91.4939 128.158 90.3304C129.541 90.116 129.004 90.0477 130.332 90.7638L130.715 91.7092C129.514 94.3421 127.542 91.9104 129.253 95.5619L128.924 97.3045C127.917 97.7143 127.539 97.7698 126.486 97.9622C124.988 97.2851 125.032 96.8509 124.005 95.3653Z" fill="white"/>
<path d="M137.662 76.5883C138.748 75.9418 140.148 76.2344 140.884 77.2609C141.62 78.2874 141.447 79.7067 140.486 80.5267C139.787 81.1223 138.813 81.2742 137.966 80.9191C137.12 80.5644 136.545 79.7626 136.481 78.847C136.417 77.9315 136.874 77.0577 137.662 76.5883Z" fill="white"/>
<path d="M120.348 87.1694C119.639 86.1482 119.817 84.7567 120.76 83.947C121.704 83.1378 123.106 83.1722 124.009 84.0273C124.911 84.8821 125.021 86.2807 124.263 87.2658C123.505 88.2509 122.124 88.5034 121.066 87.8507C120.782 87.6756 120.538 87.4434 120.348 87.1694Z" fill="white"/>
<path d="M133.379 95.7066C132.152 95.2827 131.48 93.9648 131.857 92.723C132.234 91.4813 133.526 90.7594 134.781 91.0889C136.037 91.418 136.808 92.6808 136.526 93.9478C136.377 94.62 135.948 95.1962 135.347 95.5323C134.746 95.8684 134.03 95.9317 133.379 95.7066Z" fill="white"/>
<path d="M141.284 87.8572C139.722 87.6689 139.085 87.1954 138.388 85.8C138.437 84.3224 138.239 84.8501 139.177 83.7036C140.397 83.0794 141.015 83.3517 142.386 83.6671C142.689 85.8439 142.362 85.959 141.284 87.8572Z" fill="white"/>
<path d="M118.426 85.3394C119.005 86.1453 119.409 86.9338 120.348 87.1697C120.538 87.4437 120.782 87.6759 121.066 87.851C121.689 89.325 122.323 90.8788 121.992 92.5196C120.769 90.3639 119.088 87.6656 118.426 85.3394Z" fill="#232127"/>
<path d="M122.666 77.8563C123.439 77.3592 124.426 77.3422 125.216 77.812C126.005 78.2818 126.461 79.1576 126.392 80.0736C126.324 80.9901 125.743 81.7885 124.893 82.1358C123.733 82.6093 122.405 82.1217 121.827 81.0112C121.249 79.901 121.613 78.5335 122.666 77.8563Z" fill="white"/>
<path d="M127.294 84.4807C128.022 83.9856 128.961 83.9252 129.746 84.323C130.531 84.7207 131.038 85.5138 131.069 86.3934C131.1 87.2725 130.65 88.0995 129.895 88.5511C128.773 89.2225 127.321 88.8802 126.617 87.7787C125.913 86.6773 126.213 85.2158 127.294 84.4807Z" fill="white"/>
<path d="M129.688 79.0784C130.731 78.3143 132.19 78.5059 132.999 79.5134C133.808 80.5208 133.68 81.9869 132.709 82.8392C132.042 83.4249 131.107 83.5971 130.274 83.2879C129.442 82.9783 128.847 82.2374 128.724 81.3578C128.602 80.4786 128.972 79.6032 129.688 79.0784Z" fill="white"/>
<path d="M134.185 85.6982C134.849 85.3157 135.668 85.3211 136.326 85.7122C136.985 86.1034 137.382 86.8194 137.364 87.5852C137.345 88.3509 136.916 89.0471 136.239 89.4068C135.217 89.9495 133.949 89.5737 133.389 88.5616C132.828 87.5496 133.183 86.2756 134.185 85.6982Z" fill="white"/>
<path d="M128.7 74.5125C129.461 74.0866 130.422 74.3507 130.858 75.1057C131.293 75.8607 131.041 76.8255 130.291 77.2701C129.798 77.5627 129.185 77.5672 128.688 77.2825C128.19 76.9977 127.884 76.4675 127.886 75.8942C127.889 75.3209 128.2 74.7932 128.7 74.5125Z" fill="white"/>
<path d="M117.121 188.795C115.85 175.78 117.55 150.165 120.072 137.418C120.49 143.513 120.603 143.355 122.956 148.776C123.104 170.374 124.836 188.98 127.423 210.309C134.387 180.356 154.286 173.73 173.55 151.789C172.602 170.629 175.781 187.029 166.17 204.323C157.953 219.107 146.897 227.459 130.815 232.285C131.387 236.071 132.779 247.88 129.615 249.995C121.251 250.56 118.565 206.565 117.829 199.179C107.777 201.55 94.7211 200.73 85.0809 197.239C54.3636 186.118 48.7937 164.938 36 138.975C71.934 154.769 96.3602 149.416 117.121 188.795Z" fill="#5CAC56"/>
</g>
<defs>
<clipPath id="clip0_114_162">
<rect width="250" height="250" fill="white"/>
</clipPath>
</defs>
</svg>
