<svg width="250" height="250" viewBox="0 0 250 250" fill="none" xmlns="http://www.w3.org/2000/svg">
<path fill-rule="evenodd" clip-rule="evenodd" d="M147.544 0.00910871C150.031 -0.100206 151.817 0.781137 153.039 2.28969C154.239 3.77068 154.861 5.81333 155.151 7.98483C155.696 12.0665 155.094 16.8289 154.671 19.8069C159.262 19.9356 161.298 19.5471 163.073 18.6263C164.015 18.1375 164.896 17.4926 166.063 16.6452C167.224 15.8029 168.638 14.7821 170.614 13.5788L170.988 13.359C171.887 12.8505 172.955 12.3788 174.063 12.087C175.324 11.7548 176.68 11.6445 177.906 12.0199C179.438 12.4897 180.789 13.5492 181.512 15.0133L181.78 15.591C183.046 18.4899 183.197 21.55 183.11 24.5888C183.022 27.6616 182.697 30.6656 182.949 33.6168L183.007 34.2072L183.008 34.212C183.162 35.7181 183.603 37.3249 184.164 39.0027C184.734 40.7078 185.385 42.3743 185.997 44.1474C187.189 47.6025 188.132 51.1929 187.167 54.4523C186.235 57.6021 183.196 60.3813 179.858 62.6868C176.499 65.0071 172.708 66.9293 170.139 68.3158L170.14 68.3167L160.114 73.7532C164.736 74.0894 168.724 73.9304 172.444 72.9217C176.592 71.7966 180.443 69.6069 184.482 65.8105L184.491 65.8018L184.5 65.794C184.877 65.4723 185.249 65.1232 185.633 64.7612C186.014 64.4018 186.407 64.0296 186.815 63.6758C187.629 62.9689 188.53 62.3071 189.592 61.9185C190.938 61.4265 192.197 62.3121 192.349 63.6068C192.564 65.4708 191.944 67.6561 191.061 69.6812C190.171 71.7208 188.981 73.6681 187.979 75.0865C184.807 79.5808 180.461 84.5798 175 86.4739L174.987 86.4787L174.974 86.4826C172.89 87.0799 170.239 87.5298 168.046 87.5981C161.43 87.8044 156.775 90.4411 152.118 95.0127C151.179 95.934 150.172 97.0289 149.093 98.1899C148.018 99.3468 146.877 100.565 145.686 101.713C143.314 103.999 140.684 106.07 137.891 106.84C136.563 107.205 134.836 107.246 133.125 107.273C131.585 107.298 130.039 107.313 128.671 107.509C132.471 121.035 132.626 130.486 130.298 144.608C130.059 146.674 129.575 148.794 129.141 150.87C128.702 152.968 128.314 155.031 128.244 157.032C128.21 158.042 128.4 158.774 128.714 159.31C129.027 159.843 129.487 160.221 130.06 160.489C131.188 161.017 132.705 161.093 134.22 161.057C135.16 160.192 137.093 158.04 137.989 157.089C141.25 153.634 144.017 151.194 147.964 148.577C154.012 144.566 160.698 143.774 167.481 143.951C170.87 144.04 174.303 144.372 177.695 144.671C181.094 144.971 184.456 145.239 187.741 145.208C189.85 145.188 192.224 145.039 194.619 144.914C197.005 144.79 199.409 144.691 201.545 144.776C201.866 144.789 202.148 144.929 202.366 145.095C202.587 145.263 202.773 145.482 202.906 145.71L202.952 145.789L202.968 145.88C203.089 146.616 202.849 147.361 202.543 148.002C202.235 148.648 201.817 149.272 201.506 149.759C199.301 153.216 195.37 154.695 191.241 155.192C187.104 155.689 182.661 155.214 179.278 154.662C177.585 154.385 175.952 153.978 174.363 153.65C172.959 153.361 171.555 153.124 170.069 153.061L169.427 153.046C162.778 152.992 154.082 155.079 148.028 157.818C142.712 160.224 141.583 161.47 135.386 162.781C133.704 164.518 132.049 166.786 130.646 168.793C124.18 178.047 121.794 186.875 120.048 197.865C117.847 213.938 118.257 228.671 109.444 243.63C108.99 244.4 108.25 245.637 107.462 246.83C106.683 248.008 105.825 249.194 105.136 249.831L104.953 250L104.706 249.956C104.604 249.938 104.538 249.93 104.484 249.924C104.458 249.921 104.325 249.912 104.204 249.85C104.057 249.776 103.977 249.657 103.952 249.62C103.911 249.563 103.888 249.526 103.827 249.444L103.692 249.262L103.742 249.041C103.755 248.986 103.774 248.942 103.778 248.933C103.786 248.915 103.795 248.898 103.802 248.885C103.815 248.859 103.831 248.829 103.849 248.799C103.884 248.737 103.934 248.656 103.993 248.56C104.111 248.366 104.278 248.099 104.476 247.785C104.873 247.155 105.404 246.323 105.948 245.47C107.045 243.747 108.172 241.972 108.405 241.531L108.406 241.53C110.502 237.594 112.189 233.454 113.442 229.178L113.443 229.177C115.662 221.675 116.22 215.448 116.955 207.661C118.569 190.553 121.306 176.458 132.653 162.989C131.48 162.966 130.54 162.828 129.308 162.264L128.984 162.11C128.063 161.653 127.367 160.776 126.921 159.832C126.474 158.885 126.247 157.805 126.316 156.871C126.469 154.806 126.84 152.63 127.249 150.471C127.66 148.303 128.107 146.16 128.423 144.12C129.799 135.219 130.623 126.039 128.977 117.189C128.45 114.351 127.535 110.953 126.792 108.011C125.445 108.427 124.315 108.892 123.2 109.379C121.955 109.922 120.709 110.501 119.224 111.052C113.084 113.329 105.007 114.039 98.5165 113.868C94.595 113.765 89.797 113.326 85.255 112.17C80.7217 111.016 76.3874 109.134 73.4505 106.106C71.3058 103.895 70.549 101.408 70.5265 98.5362C66.6892 99.6033 62.3334 100.797 58.3707 100.644C56.2657 100.562 54.2436 100.101 52.4543 99.0224C50.6611 97.9417 49.1342 96.2616 47.9911 93.799C45.6334 88.7188 47.8721 84.4094 50.6361 80.3946C52.0406 78.3546 53.5533 76.4241 54.8078 74.3989C56.0517 72.3907 56.9818 70.3755 57.2023 68.2594C57.3707 66.6428 57.0228 65.2638 56.5154 63.8645C56.0178 62.4925 55.3259 61.0145 54.9203 59.3801C54.3224 57.0279 54.1534 53.7198 55.1434 51.3558C57.4073 45.9512 62.8336 44.4616 68.4823 44.6191C73.9434 44.7715 79.8 46.4589 83.7441 47.8518C85.0841 45.1001 87.3551 42.8177 89.727 41.01C88.4786 39.656 87.0869 38.3141 85.6493 36.938C84.0744 35.4305 82.4455 33.8801 80.9228 32.2427C77.878 28.9683 75.2114 25.3 74.1707 20.796C73.7034 18.7731 73.9757 16.2212 75.2628 14.4454C77.5707 11.2618 81.6625 10.239 85.8225 10.1769C90.0034 10.1146 94.4002 11.0185 97.5067 11.8438C98.9668 12.2318 100.395 12.7128 101.806 13.1752C103.222 13.6396 104.625 14.0872 106.065 14.422H106.068C108.237 14.9401 110.463 15.1914 112.694 15.1718C117.431 15.1025 122.018 13.3433 126.474 11.0201C128.701 9.85956 130.883 8.56486 133.03 7.27877C135.172 5.99537 137.282 4.71858 139.344 3.60747C142.035 2.15787 144.249 0.60326 147.475 0.016889L147.51 0.0110538L147.544 0.00910871ZM113.804 232.959C112.609 236.433 111.062 239.899 109.012 243.379C108.677 243.946 108.189 244.762 107.642 245.627C107.818 245.348 107.99 245.075 108.151 244.813L109.012 243.379C110.925 240.131 112.402 236.896 113.561 233.655C113.644 233.423 113.725 233.192 113.805 232.96L113.804 232.959ZM116.485 222.487C115.927 225.534 115.22 228.556 114.264 231.57L114.481 230.874C114.552 230.643 114.621 230.411 114.688 230.179C114.756 229.947 114.823 229.715 114.888 229.483C115.539 227.161 116.056 224.831 116.485 222.487ZM119.553 197.788C118.584 204.862 118.12 211.631 117.172 218.251C117.917 213.049 118.363 207.756 118.99 202.294C119.104 201.302 119.224 200.303 119.353 199.299C119.418 198.797 119.484 198.293 119.553 197.788ZM127.518 172.771C128.169 171.644 128.872 170.516 129.635 169.383L129.058 170.256C128.513 171.096 128.001 171.934 127.518 172.771ZM137.249 161.839C137.185 161.856 137.119 161.87 137.053 161.887C137.444 161.789 137.812 161.693 138.16 161.594L137.249 161.839ZM137.43 159.712C136.962 160.219 136.49 160.735 136.013 161.259L136.014 161.258C136.49 160.734 136.962 160.219 137.43 159.712ZM174.017 146.28C169.898 145.947 165.815 145.705 161.847 145.975C150.892 146.979 144.668 152.592 137.557 160.314C141.509 159.144 142.821 158.108 147.109 156.136C153.247 153.313 162.027 151.187 168.944 151.12H169.614L169.622 151.121C171.525 151.195 173.16 151.488 174.749 151.822C176.345 152.157 177.872 152.526 179.617 152.773C183.694 153.349 188.28 153.88 192.274 153.142C196.05 152.444 199.256 150.623 201.007 146.623C200.144 146.557 199.075 146.577 197.966 146.636C196.56 146.71 195.173 146.837 194.074 146.908C191.505 147.085 188.929 147.154 186.355 147.113H186.353C182.289 147.035 178.129 146.612 174.017 146.28ZM161.801 145.48C151.879 146.389 145.77 151.03 139.523 157.493L140.217 156.783C142.76 154.206 145.305 151.943 148.118 150.123C148.374 149.958 148.632 149.796 148.892 149.638C152.538 147.426 156.656 145.951 161.801 145.48ZM150.861 156.123C150.221 156.359 149.599 156.604 148.997 156.855C149.399 156.688 149.809 156.523 150.228 156.362C150.437 156.281 150.648 156.201 150.861 156.123ZM189.643 154.838C188.869 154.887 188.09 154.906 187.315 154.902C187.832 154.905 188.351 154.898 188.869 154.878C189.128 154.868 189.385 154.854 189.643 154.838ZM159.105 153.741C157.678 154.049 156.257 154.409 154.873 154.809L155.568 154.612C156.731 154.29 157.916 153.997 159.105 153.741ZM163.372 152.981C162.903 153.047 162.431 153.119 161.957 153.197L162.667 153.084C162.902 153.049 163.138 153.014 163.372 152.981ZM169.431 152.548C168.799 152.543 168.15 152.557 167.487 152.588L168.146 152.563C168.581 152.55 169.01 152.544 169.431 152.548ZM200.224 150.636C200.184 150.681 200.143 150.725 200.102 150.77C200.222 150.638 200.34 150.504 200.453 150.365L200.224 150.636ZM170.967 145.558C171.446 145.588 171.925 145.621 172.404 145.656C171.409 145.583 170.416 145.519 169.425 145.47L170.967 145.558ZM201.805 145.339C201.759 145.32 201.712 145.304 201.665 145.293L201.525 145.274L201.664 145.293C201.711 145.305 201.758 145.32 201.805 145.339ZM97.0027 94.3815C95.0397 94.3939 93.1139 94.3942 91.1753 94.5157L91.1743 94.5148C84.1721 95.0568 79.1802 96.2631 72.4983 98.0382C72.4352 100.764 72.932 102.867 74.9017 104.859C77.5849 107.571 81.6164 109.301 85.9537 110.372C90.2814 111.441 94.8578 111.84 98.5743 111.936C99.9132 111.964 101.252 111.959 102.59 111.92L103.929 111.871C110.896 111.48 115.307 110.735 121.182 108.163C117.352 107.65 113.525 105.961 109.954 103.841C105.776 101.361 101.895 98.2602 98.7113 95.6779C98.1402 95.2149 97.5966 94.7972 97.0027 94.3815ZM84.205 110.418C84.2641 110.435 84.3238 110.45 84.3831 110.467C84.0547 110.373 83.7281 110.276 83.4045 110.173L84.205 110.418ZM122.305 108.205C122.576 108.081 122.854 107.956 123.132 107.824L123.13 107.823C122.852 107.955 122.576 108.081 122.305 108.205ZM73.8106 105.761C73.9885 105.945 74.172 106.124 74.3606 106.299C74.5488 106.474 74.7417 106.645 74.9399 106.811C74.5431 106.478 74.1662 106.128 73.8106 105.761ZM126.181 105.454C123.713 106.189 121.437 106.212 119.28 105.787C121.22 106.264 123.212 106.475 125.252 106.326C125.611 106.3 126.022 106.22 126.341 106.096L126.181 105.454ZM143.069 103.377C141.523 104.63 139.912 105.654 138.256 106.208L138.752 106.029C140.07 105.512 141.357 104.711 142.604 103.747C142.76 103.626 142.914 103.503 143.069 103.377ZM127.402 104.241C127.574 104.845 127.694 105.206 127.749 105.776L127.77 106.034C127.728 105.305 127.599 104.931 127.402 104.241ZM130.583 105.776C130.638 105.77 130.713 105.764 130.823 105.759C131.704 105.769 132.497 105.777 133.222 105.777C132.498 105.777 131.704 105.768 130.824 105.758C130.713 105.763 130.638 105.77 130.583 105.776ZM190.132 63.7322C190.085 63.7354 190.048 63.7384 189.994 63.7429L189.913 63.7915L189.912 63.7906C188.904 64.3928 187.724 65.4071 186.505 66.5059C185.303 67.5886 184.065 68.7542 182.991 69.5976C174.698 76.1068 166.852 76.4084 157.125 75.4113C150.679 79.6716 144.184 83.096 138.992 88.8556C138.301 89.6219 137.553 90.3757 136.913 91.2101C136.278 92.0368 135.797 92.8865 135.635 93.7912C135.014 97.2539 134.295 100.876 132.243 103.964L132.238 103.972C131.952 104.386 131.606 104.767 131.301 105.097C131.248 105.154 131.197 105.209 131.148 105.262C134.508 105.299 136.469 105.315 138.259 104.721C140.087 104.116 141.78 102.858 144.571 100.157C145.764 99.0028 146.818 97.8839 147.827 96.7992C148.833 95.7172 149.8 94.6638 150.809 93.656C152.831 91.6372 155.037 89.7864 158.162 88.1505C160.752 86.5393 163.699 86.1124 166.555 85.8456C169.456 85.5748 172.229 85.4673 174.675 84.5677C177.84 83.4032 181.128 80.6557 183.91 77.3476C186.688 74.0455 188.913 70.243 189.984 67.0388C190.166 66.4961 190.392 65.817 190.49 65.1648C190.582 64.5516 190.539 64.082 190.356 63.7799C190.259 63.7368 190.235 63.7315 190.224 63.7303C190.213 63.7291 190.19 63.7283 190.132 63.7322ZM133.073 97.0871C132.568 98.0685 132.217 98.9315 131.75 99.8413C131.024 101.253 130.074 102.63 127.971 104.412C128.055 104.701 128.127 104.957 128.18 105.243C130.401 103.89 131.584 101.525 132.525 98.9446C132.641 98.6267 132.868 97.882 133.073 97.0871ZM103.51 95.426C104.468 96.0446 105.455 96.6442 106.051 96.9898C109.017 98.7121 112.186 100.96 115.562 102.504C118.88 104.021 122.258 104.784 125.591 103.647C125.751 103.472 125.742 103.357 125.723 103.286C125.686 103.155 125.548 102.965 125.253 102.773C118.633 98.4499 110.594 96.0426 102.712 94.8989C102.967 95.0708 103.236 95.2488 103.51 95.426ZM133.824 94.826C131.829 97.8055 131.733 99.5732 129.818 101.883C130.087 101.559 130.321 101.247 130.528 100.939C130.589 100.849 130.647 100.76 130.704 100.671C131.832 98.8935 132.191 97.2656 133.824 94.826ZM71.9934 98.2055C71.983 98.932 72.0147 99.6212 72.104 100.281C71.9924 99.4563 71.9719 98.5849 72.0091 97.6531L71.9934 98.2055ZM128.809 101.383L128.928 101.503L128.929 101.502L128.809 101.383ZM123.449 101.086C123.569 101.155 123.689 101.226 123.809 101.296C123.455 101.089 123.098 100.886 122.738 100.688L123.449 101.086ZM65.5466 99.3152C64.2067 99.6177 62.8571 99.8687 61.5276 100.016C62.0593 99.9573 62.5942 99.8814 63.1305 99.7927C63.3987 99.7483 63.6672 99.7003 63.9359 99.6497C64.473 99.5486 65.0106 99.4362 65.5466 99.3152ZM131.166 64.5034C129.133 64.9539 127.863 65.8708 126.965 66.9795C125.977 68.1986 125.421 69.6652 124.827 71.1361C124.249 72.5685 123.623 74.0378 122.462 75.034C121.416 75.9313 119.998 76.3994 117.957 76.2672C120.877 82.105 123.796 88.6533 125.451 94.9767L125.621 95.5884C125.816 96.3181 126.08 97.3585 126.346 98.3096C126.524 98.9476 126.707 99.5606 126.88 100.058C126.904 99.7262 126.917 99.3388 126.917 98.9077C126.917 97.8075 126.845 96.4551 126.745 95.0691C126.549 92.3295 126.236 89.3994 126.181 88.2147C126.084 86.1526 126.106 84.0863 126.245 82.0265C126.558 77.4121 127.588 72.8726 129.296 68.5706L129.297 68.5686C129.605 67.8042 130.01 66.9887 130.387 66.2122C130.677 65.6149 130.949 65.0393 131.166 64.5034ZM62.2439 98.9894L61.784 99.0672C61.9366 99.0432 62.0897 99.0181 62.2429 98.9903C62.5567 98.9336 62.8689 98.8734 63.1794 98.8133C62.8691 98.8733 62.5574 98.9326 62.2439 98.9894ZM82.8222 49.5907C76.8256 47.5492 71.6956 46.2212 65.345 46.6254C62.1324 47.058 59.7368 48.1074 58.2406 49.8066C56.7537 51.4955 56.0825 53.9107 56.4909 57.2377C56.7651 59.3111 57.5187 60.974 58.1799 62.7743C58.8363 64.5615 59.3777 66.437 59.0998 68.7972C58.833 71.0614 57.8162 73.1782 56.5526 75.1964C55.2991 77.1983 53.7413 79.1917 52.4093 81.1162C49.6974 85.0346 47.8085 88.8132 49.8308 93.1415C51.0178 95.6817 52.7901 97.2423 54.8968 98.0625C57.0165 98.8876 59.5135 98.9781 62.1539 98.5002C65.0837 97.9699 67.8617 97.2961 70.7496 96.4744C71.7925 93.1592 73.3965 89.6197 75.7814 87.2159C77.011 85.9767 78.4593 85.0281 80.1537 84.5794C81.8513 84.13 83.7608 84.1916 85.892 84.9178C86.2289 85.0327 86.5564 85.1535 86.8784 85.2767C79.2899 74.6526 77.8842 61.7528 82.8222 49.5907ZM134.476 84.3596C134.157 85.8652 133.702 87.3194 133.231 88.7496C132.758 90.1869 132.272 91.5937 131.876 93.0394C131.441 94.626 131.033 96.3201 130.543 97.9857C131.089 96.9426 131.608 95.8581 132.245 94.6995C132.338 94.5296 132.764 93.8179 133.152 93.1445C133.351 92.8001 133.544 92.4594 133.69 92.1865C133.764 92.05 133.822 91.9343 133.864 91.8461C133.915 91.7393 133.918 91.7189 133.912 91.746L134.049 91.0224C134.472 88.605 134.612 85.9232 134.704 83.2927C134.629 83.6472 134.552 84.003 134.476 84.3596ZM114.755 75.955C114.804 76.4621 114.87 77.1098 114.951 77.7415C115.011 78.2153 115.079 78.6754 115.151 79.0574C115.227 79.4558 115.3 79.7198 115.355 79.8373C116.451 82.1672 118.371 86.3632 120.376 90.4165C121.744 93.1836 123.137 95.851 124.321 97.8058C122.39 90.4362 119.072 82.7391 115.646 76.0921L114.755 75.955ZM84.6561 50.2199C81.048 58.8065 80.9667 68.4635 84.4467 77.1152L84.7128 77.7571C87.5193 84.3299 91.9948 89.0724 98.6027 92.2274C98.8701 92.355 99.4048 92.4918 100.151 92.629C100.879 92.7629 101.754 92.8883 102.662 93.0093C104.457 93.2485 106.413 93.4737 107.511 93.7144C111.844 94.665 115.102 95.7843 118.756 97.2515C118.698 97.1987 118.639 97.1475 118.584 97.0959C116.587 95.3683 110.027 89.7041 106.188 84.4724C105.225 83.1613 104.421 81.8598 103.903 80.6406C103.388 79.4293 103.133 78.245 103.341 77.194C103.556 76.1088 104.25 75.241 105.458 74.6674C106.54 74.1532 108.038 73.8731 110.006 73.8407C109.268 72.303 107.988 69.7057 106.66 67.1691C105.88 65.6777 105.085 64.21 104.376 62.9931C103.66 61.7638 103.053 60.8264 102.646 60.3653C100.892 58.3787 97.7487 56.3235 94.3527 54.5194C90.9715 52.7233 87.3956 51.2036 84.8234 50.2753C84.7681 50.2557 84.7116 50.239 84.6561 50.2199ZM75.712 96.6854C75.3158 96.786 74.9157 96.8895 74.5103 96.9947L75.712 96.6854C76.1082 96.5849 76.5003 96.4876 76.8892 96.3917L75.712 96.6854ZM73.7656 92.5532C73.1157 93.8349 72.5976 95.1815 72.2204 96.5717C72.9827 96.3879 73.7509 96.1961 74.523 96.0047C73.7512 96.1961 72.9834 96.387 72.2214 96.5707C72.5608 95.3199 73.0149 94.105 73.5757 92.9402C73.638 92.8109 73.7016 92.6822 73.7666 92.5541L73.7656 92.5532ZM134.851 65.7483C134.303 68.4618 132.923 71.1306 131.595 73.7211C130.141 76.557 128.75 79.3046 128.372 82.0703C127.804 86.2238 128.39 91.964 128.913 96.5542C128.973 96.3435 129.035 96.1255 129.096 95.9045C129.407 94.7755 129.727 93.5508 129.884 92.9908L133.556 79.4435L133.557 79.4415C133.682 78.989 134 78.2853 134.267 77.6783C134.405 77.363 134.535 77.0641 134.634 76.8098C134.738 76.541 134.789 76.3713 134.798 76.2944C134.948 75.0644 135.013 71.7896 134.947 68.5492C134.927 67.5897 134.894 66.6375 134.851 65.7483ZM116.584 86.648C117.378 89.1213 119.108 93.5003 120.811 96.2916L120.542 95.8374C120.453 95.6823 120.363 95.5232 120.274 95.3609C120.095 95.0359 119.918 94.6973 119.742 94.3494C118.598 92.0883 117.537 89.4284 116.866 87.4882C116.762 87.1894 116.669 86.9076 116.585 86.647L116.584 86.648ZM91.144 94.0188C88.0031 94.2616 85.2638 94.6381 82.6001 95.1372C84.5028 94.7807 86.4442 94.4871 88.543 94.26C89.3823 94.1691 90.2467 94.0881 91.144 94.0188ZM117.146 93.9157C117.912 94.5862 118.696 95.2918 119.481 95.9347L119.48 95.9327C119.089 95.6119 118.696 95.2758 118.307 94.9359C117.917 94.595 117.529 94.2512 117.146 93.9157ZM88.8962 88.4384C86.2795 86.9163 83.6382 85.9064 81.4102 86.2551C78.7133 86.8024 77.0709 88.2584 75.4928 90.5974L75.4918 90.5964C74.3945 92.2294 73.5385 94.0089 72.9465 95.8792C76.6022 94.9832 80.4235 93.975 84.1551 93.4275C87.7631 92.8068 91.1104 92.5492 94.6796 92.4306C93.0065 91.166 90.9978 89.6609 88.8962 88.4384ZM105.279 93.8554C106.12 93.9702 106.867 94.0843 107.402 94.2016C107.718 94.271 108.029 94.3414 108.335 94.4126L107.403 94.2006C106.868 94.0833 106.12 93.9703 105.279 93.8554ZM111.027 75.7508C110.3 75.7493 109.268 75.7389 108.78 75.7955C107.835 75.9355 106.786 76.1689 106.056 76.6124C105.698 76.8304 105.446 77.0812 105.31 77.3671C105.177 77.6445 105.128 78.0059 105.26 78.4972C105.947 81.0584 108.017 83.9611 110.446 86.682C112.861 89.3869 115.575 91.8516 117.477 93.5413L117.956 93.9614C115.882 89.5724 114.507 85.5488 113.368 80.6115C113.243 80.068 112.793 79.1694 112.262 78.1665C111.823 77.3372 111.337 76.449 111.027 75.7508ZM48.6183 90.9932C48.7561 91.7628 49.0012 92.5481 49.3767 93.3516L49.1908 92.9295C48.918 92.2726 48.7319 91.6275 48.6183 90.9932ZM96.1132 92.8877C95.0875 92.9119 94.0855 92.9451 93.0962 92.9918C94.0861 92.9451 95.0888 92.9129 96.1151 92.8887L96.1132 92.8877ZM75.0759 90.3202C74.7541 90.7992 74.4526 91.2905 74.1717 91.7926L74.387 91.4182C74.6053 91.0459 74.8346 90.6793 75.0759 90.3202ZM77.7298 87.3569C76.9805 87.9308 76.32 88.634 75.6934 89.4576C76.1111 88.9086 76.5442 88.4136 77.0086 87.9745C77.2407 87.755 77.4801 87.5482 77.7298 87.3569ZM149.604 74.2093C147.443 73.9554 145.314 73.8257 143.605 74.0177L143.596 74.0187C140.778 74.2893 138.661 74.8473 136.877 76.9372C136.696 80.9156 136.657 84.9734 136.271 88.9918C137.875 87.2166 139.381 85.6828 141.322 84.0124L141.327 84.0085C144.739 81.1529 150.018 77.3467 154.262 74.8901C152.82 74.6552 151.213 74.3984 149.604 74.2093ZM166.782 87.1692C166.648 87.18 166.515 87.1934 166.382 87.2062C166.717 87.1739 167.056 87.1464 167.401 87.1274L166.782 87.1692ZM79.8171 86.1948C79.6613 86.2539 79.5097 86.3178 79.361 86.3844C79.6579 86.2513 79.9683 86.1325 80.2946 86.0294L79.8171 86.1948ZM85.7296 85.3895C86.6379 85.6992 87.4745 86.0411 88.3551 86.4175L88.3531 86.4155C88.1338 86.3218 87.917 86.2308 87.7014 86.1413C87.052 85.8718 86.411 85.6218 85.7296 85.3895ZM182.003 81.3953C179.878 83.4057 177.485 85.0849 174.835 86.0041L175.329 85.8233C175.657 85.6967 175.98 85.5586 176.299 85.4099C176.618 85.2613 176.933 85.1024 177.244 84.9334C177.555 84.7643 177.862 84.5853 178.165 84.3975C178.317 84.3036 178.467 84.207 178.616 84.1087C179.214 83.7157 179.795 83.2891 180.359 82.8347C180.642 82.6073 180.92 82.3728 181.194 82.1325C181.468 81.8924 181.738 81.6465 182.003 81.3953ZM104.685 77.8193C104.669 78.0637 104.697 78.3317 104.775 78.6256C105.27 80.469 106.436 82.4516 107.908 84.3975C107.506 83.8668 107.128 83.3332 106.78 82.8006C106.431 82.2678 106.112 81.7361 105.831 81.2086C105.364 80.3297 105 79.4634 104.775 78.6256C104.677 78.2587 104.659 77.9311 104.706 77.6404L104.685 77.8193ZM82.2439 85.69C81.9316 85.6937 81.624 85.7181 81.3221 85.7659L81.5501 85.7348C81.7785 85.7075 82.0099 85.6928 82.2439 85.69ZM173.651 85.4099C173.729 85.389 173.808 85.3698 173.886 85.3477L173.902 85.3428C173.819 85.3665 173.735 85.3876 173.651 85.4099ZM114.901 80.0484C115.491 81.3025 116.325 83.1047 117.282 85.1366C117.211 84.9869 117.14 84.8383 117.071 84.6912L114.901 80.0484ZM142.623 83.5923C142.285 83.865 141.959 84.13 141.65 84.3888C141.647 84.3916 141.643 84.3947 141.64 84.3975C141.643 84.395 141.646 84.3923 141.649 84.3897C141.958 84.1308 142.285 83.8652 142.623 83.5923ZM127.876 82.0041C127.787 82.649 127.729 83.3309 127.691 84.0396C127.72 83.4925 127.76 82.9609 127.819 82.4505L127.876 82.0041ZM141.468 73.8154C139.495 74.2116 137.833 74.9874 136.384 76.7476C136.277 79.0348 136.221 81.3307 136.122 83.6244L136.251 80.1835C136.291 79.0371 136.331 77.891 136.384 76.7476C137.048 75.9409 137.759 75.3415 138.521 74.8901C138.591 74.849 138.661 74.8091 138.731 74.7704C139.012 74.616 139.3 74.4804 139.596 74.361C139.892 74.2416 140.196 74.1378 140.508 74.0479C140.82 73.958 141.139 73.8814 141.468 73.8154ZM119.377 80.3382C119.75 81.1342 120.119 81.9385 120.48 82.7491L119.934 81.5383C119.75 81.1362 119.563 80.7363 119.377 80.3382ZM156.997 74.8998C154.984 76.2341 152.952 77.4925 150.946 78.7705L152.153 78.0051C153.764 76.9862 155.387 75.9671 156.997 74.8998ZM151.296 77.3049C150.702 77.6912 150.103 78.0919 149.505 78.5001C150.419 77.8769 151.334 77.2726 152.228 76.7068L151.296 77.3049ZM81.603 67.8217C81.9561 71.0459 82.7489 74.2359 83.9819 77.301C84.0314 77.4237 84.0829 77.5451 84.1335 77.6666L83.9819 77.301C82.637 73.9574 81.816 70.4648 81.5178 66.9416L81.603 67.8217ZM108.35 75.3598C106.923 75.6024 105.237 76.0975 104.793 77.3078C104.851 77.15 104.93 77.0046 105.027 76.8701C105.059 76.8252 105.093 76.7814 105.13 76.7388C105.888 75.8487 107.464 75.4872 108.715 75.3024L108.35 75.3598ZM128.488 76.6844L128.542 76.7174V76.7155L128.488 76.6844ZM128.869 74.2297C128.698 74.9096 128.578 75.5364 128.522 76.0775C128.545 75.861 128.577 75.6308 128.619 75.389C128.64 75.2682 128.664 75.1447 128.69 75.0184C128.767 74.639 128.864 74.2355 128.977 73.8154L128.869 74.2297ZM155.748 74.6255C155.202 74.9201 154.631 75.2457 154.043 75.5942L154.912 75.0904C155.197 74.9288 155.477 74.7739 155.75 74.6265L155.748 74.6255ZM122.509 74.2978C122.036 74.8034 121.461 75.2086 120.726 75.4687C120.91 75.4037 121.084 75.3294 121.249 75.247C121.578 75.0821 121.871 74.8839 122.135 74.6576C122.267 74.5446 122.391 74.4241 122.509 74.2978ZM168.058 75.1702C166.992 75.2749 165.91 75.3292 164.808 75.3413L163.978 75.3423C165.369 75.3523 166.726 75.3011 168.058 75.1702ZM159.693 75.1478C159.986 75.1705 160.278 75.1908 160.569 75.21C159.988 75.1716 159.4 75.126 158.805 75.0739L159.693 75.1478ZM171.21 74.6936C170.95 74.7476 170.69 74.7978 170.43 74.8444C170.951 74.7511 171.47 74.6431 171.987 74.5195L171.21 74.6936ZM115.212 72.6328C115.674 73.3566 116.123 74.0913 116.452 74.6781C116.123 74.0916 115.675 73.3572 115.213 72.6338L115.212 72.6328ZM112.376 74.3552C112.394 74.3575 112.412 74.3572 112.43 74.3591C112.371 74.3528 112.311 74.3462 112.253 74.3347L112.376 74.3552ZM147.813 1.89193C145.014 2.39049 142.907 3.83271 140.284 5.25202C138.12 6.42294 135.964 7.7314 133.773 9.04586C131.587 10.3576 129.368 11.6745 127.095 12.8494C122.549 15.1993 117.753 17.0018 112.487 17.079H112.484C110.195 17.0996 107.912 16.8424 105.687 16.3136C103.806 15.8728 101.435 15.1151 98.8835 14.3666C96.3166 13.6136 93.5392 12.8613 90.7907 12.4089C85.2575 11.4981 80.032 11.8345 76.8285 15.5774C76.3812 16.1001 76.1033 16.8862 75.985 17.7607C75.8679 18.6267 75.9145 19.5234 76.0652 20.2183C77.0343 24.5369 79.5684 27.9959 82.5531 31.1593C84.0462 32.7417 85.64 34.238 87.2013 35.7331C88.645 37.1155 90.0591 38.498 91.3143 39.9256C94.7835 37.7122 101.005 35.3617 107.007 34.5534C110.121 34.134 113.215 34.1245 115.855 34.7878C118.336 35.4112 120.448 36.6395 121.768 38.7051L122.022 39.1301L122.037 39.1574L122.049 39.1875C123.128 41.8924 122.691 44.3885 121.733 46.7159C121.256 47.8749 120.645 49.0023 120.024 50.0973C119.397 51.2013 118.765 52.2626 118.216 53.3281C115.365 58.8675 114.66 64.2634 114.349 70.4368C115.089 71.4892 116.134 73.1137 116.796 74.2735C117.649 74.3281 118.352 74.3655 118.959 74.3445C119.624 74.3213 120.137 74.2285 120.57 74.0333C121.413 73.6521 122.102 72.8108 122.908 70.8113C123.964 68.1951 124.834 66.2089 126.225 64.836C127.606 63.4734 129.446 62.761 132.3 62.4845C132.922 61.4732 133.565 60.417 134.277 59.4336C132.872 51.0568 130.782 42.7795 128.981 34.4416C127.967 29.744 128.182 26.3991 129.362 24.053C130.555 21.6822 132.683 20.4282 135.244 19.803C137.791 19.1815 140.821 19.1665 143.916 19.3031C146.89 19.4344 149.899 19.7002 152.729 19.7437C153.08 17.1869 153.654 12.7178 153.264 8.85622C153.056 6.80628 152.582 4.99264 151.712 3.73293C150.87 2.5164 149.647 1.79218 147.813 1.89193ZM175.649 13.6946C173.297 14.1904 171.5 15.1446 169.788 16.299C168.922 16.8828 168.085 17.5132 167.199 18.1663C166.318 18.8163 165.396 19.4849 164.379 20.1278C162.982 21.0109 161.087 21.4022 159.213 21.5818C157.498 21.7462 155.738 21.7374 154.3 21.7335C152.393 31.8965 147.767 43.0146 142.233 51.6816C140.431 54.503 138.305 57.2606 136.265 59.8898C136.84 65.4815 136.772 69.0884 136.908 74.2939C139.618 72.3186 142.47 72.0309 145.826 72.0493H145.835C149.857 72.1413 152.918 72.7033 156.8 73.4001C160.546 71.3136 164.314 69.264 168.102 67.2508C173.032 64.6045 178.002 62.1044 182.252 58.4339C184.183 56.7664 185.116 54.9776 185.442 53.1112C185.77 51.229 185.488 49.228 184.917 47.135C184.345 45.035 183.501 42.9039 182.729 40.727C181.965 38.5698 181.277 36.38 181.066 34.2422C180.748 31.0294 181.098 27.7579 181.17 24.6793C181.243 21.5706 181.041 18.5896 179.689 15.7534C178.881 14.1812 177.442 13.611 175.649 13.6946ZM112.01 74.2064C112.045 74.2458 112.074 74.2756 112.099 74.292L112.063 74.2628C112.046 74.2479 112.03 74.2283 112.01 74.2064ZM159.404 74.2005C159.565 74.2137 159.726 74.2235 159.886 74.2356C159.4 74.1989 158.907 74.1589 158.408 74.112L159.404 74.2005ZM152.765 73.2086C154.079 73.4161 155.421 73.6592 156.888 73.9224L154.052 73.4196C153.618 73.3454 153.19 73.2757 152.765 73.2086ZM109.411 68.6211C110.136 70.0028 110.852 71.3406 111.421 72.3411C111.706 72.8422 111.95 73.2519 112.137 73.5373C112.23 73.6781 112.303 73.7793 112.355 73.8436C112.432 73.8584 112.51 73.8684 112.594 73.8728C112.538 72.9922 112.472 71.9955 112.509 71.1186C111.861 70.2332 110.519 68.4217 109.121 66.7091C108.519 65.9707 107.908 65.2559 107.342 64.6425C107.95 65.8135 108.687 67.2431 109.411 68.6211ZM123.916 72.0133C123.647 72.6165 123.355 73.1846 123.001 73.688L123.149 73.4692C123.438 73.0224 123.685 72.5303 123.916 72.0133ZM132.9 65.3768C132.201 66.689 131.364 68.527 130.641 70.4077C130.249 71.4279 129.896 72.4547 129.615 73.4079C130.118 72.4132 130.662 71.3172 131.166 70.219C131.72 69.0096 132.214 67.8235 132.541 66.8093C132.705 66.3024 132.824 65.8474 132.889 65.4604C132.893 65.4323 132.895 65.4039 132.9 65.3768ZM131.112 64.0045C126.619 64.9761 125.497 68.1444 124.363 70.9513C125.022 69.3215 125.676 67.57 126.989 66.1976C127.062 66.1214 127.137 66.0467 127.214 65.9729C128.216 65.0134 129.581 64.265 131.557 63.918L131.112 64.0045ZM113.901 69.4497C113.879 69.8248 113.859 70.2024 113.84 70.5827L113.901 69.4526V69.4497ZM165.463 69.227C164.627 69.6768 163.792 70.1293 162.958 70.5827C164.747 69.6106 166.54 68.646 168.337 67.6904L165.463 69.227ZM111.138 66.9834C111.434 67.3528 111.727 67.7244 112.024 68.1067L111.138 66.9834C110.842 66.6139 110.544 66.2471 110.235 65.8747L111.138 66.9834ZM113.016 68.1913C112.985 68.5567 112.957 68.9237 112.93 69.2922C112.958 68.9116 112.987 68.5326 113.019 68.1553L113.016 68.1913ZM58.1584 64.2788C58.4951 65.4048 58.7168 66.5829 58.6663 67.919C58.6764 67.6516 58.6757 67.3906 58.6653 67.1351C58.6549 66.88 58.6349 66.6303 58.6066 66.3853C58.4932 65.4038 58.2455 64.4964 57.9441 63.6087L58.1584 64.2788ZM114.534 36.5617C112.438 36.16 110.198 36.1551 108.469 36.3156C102.334 36.9798 97.8416 38.3072 92.5835 41.3786C97.0812 47.0861 100.627 52.7352 104.347 58.9269C104.535 59.2408 104.864 59.6347 105.297 60.0891C105.726 60.5388 106.235 61.0263 106.766 61.5265C107.808 62.5083 108.959 63.5601 109.655 64.411L110.622 65.5577C111.283 66.3543 111.899 67.1277 112.535 67.9511C113.018 62.3229 114.016 56.9962 116.825 51.8567C117.837 50.0044 119.311 47.7329 120.149 45.3981C120.983 43.0747 121.117 40.8694 119.641 39.0961C118.525 37.7562 116.643 36.9659 114.534 36.5617ZM184.062 66.8735C183.953 66.9709 183.843 67.0652 183.734 67.1604C184.097 66.8428 184.462 66.515 184.826 66.1723L184.062 66.8735ZM81.6176 59.8868C81.3855 61.9364 81.3311 64.0016 81.4542 66.0595L81.4131 65.1774C81.3718 64.0005 81.3883 62.8224 81.463 61.6471C81.4817 61.3532 81.5036 61.0595 81.5296 60.766C81.5814 60.1794 81.6474 59.5937 81.7282 59.0096L81.6176 59.8868ZM134.14 63.1254C134.308 63.3027 134.481 63.508 134.625 63.7351C134.665 63.7981 134.702 63.8654 134.738 63.9345C134.693 63.3595 134.641 62.8542 134.584 62.4349L134.14 63.1254ZM190.278 63.2362C190.367 63.2459 190.451 63.2759 190.586 63.3374C190.409 63.2568 190.318 63.2309 190.194 63.2314L190.278 63.2362ZM135.746 59.7439C135.825 60.4981 135.893 61.2154 135.951 61.9048L135.858 60.8487C135.824 60.4887 135.787 60.1202 135.747 59.7429C136.251 59.0944 136.758 58.4387 137.265 57.7774C136.758 58.4389 136.25 59.0951 135.746 59.7439ZM56.123 58.0886C56.3663 59.3394 56.7669 60.4583 57.1788 61.544C56.7248 60.3472 56.2847 59.1101 56.0535 57.7006L56.123 58.0886ZM182.581 58.8093L182.443 58.9269C182.488 58.8878 182.535 58.8487 182.581 58.8093ZM100.935 56.198C101.107 56.4874 101.264 56.7516 101.401 56.9868C101.126 56.5161 100.776 55.9281 100.37 55.2586L100.935 56.198ZM59.2407 48.2466C56.7942 49.9806 55.5919 52.7298 55.9292 56.6707C55.8937 56.2559 55.8751 55.8543 55.8734 55.4657C55.8726 55.2715 55.8758 55.0806 55.8832 54.8929C56.0026 51.8875 57.1805 49.7068 59.2407 48.2466ZM145.101 21.3853C143.276 21.2914 140.794 21.0972 139.091 21.2083C135.598 21.4611 133.308 22.1581 131.96 23.5803C130.626 24.9875 130.099 27.2335 130.477 30.9006C130.954 35.5397 132.128 39.9812 133.252 44.5296L133.728 46.4863V46.4883C134.566 50.0602 135.293 53.6575 135.908 57.2736C136.869 56.0121 137.872 54.721 138.735 53.4924C144.848 44.4967 150.458 32.4806 152.338 21.7014C149.926 21.6078 147.514 21.5037 145.103 21.3853H145.101ZM84.0249 50.43C83.236 52.373 82.6249 54.3684 82.1901 56.3925C82.3764 55.5253 82.5954 54.6634 82.8467 53.8085C83.0143 53.2385 83.1962 52.6717 83.3928 52.1085C83.5894 51.5451 83.7994 50.9854 84.0249 50.43ZM99.6429 52.2525C100.123 53.0028 100.599 53.7581 101.074 54.5204C100.6 53.7585 100.124 53.0034 99.6439 52.2534L99.6429 52.2525ZM90.9326 42.4834C88.4969 44.2713 87.0924 45.9677 85.5368 48.5141C90.1569 50.1923 93.5188 51.7092 97.6603 54.2287L98.5342 54.7684L98.5498 54.7781C99.0615 55.1254 99.6265 55.5288 100.187 55.9257C99.1569 54.2144 97.6902 51.8472 96.1836 49.5488C95.0723 47.8534 93.944 46.2001 92.9573 44.8778C92.464 44.2167 92.009 43.6429 91.6127 43.1895C91.3507 42.8896 91.1214 42.6549 90.9326 42.4834ZM148.849 37.8444C146.835 42.6753 144.424 47.3204 141.809 51.4151C141.366 52.1089 140.903 52.7989 140.427 53.4847C140.658 53.1518 140.887 52.8178 141.111 52.483L141.809 51.4151C144.598 47.0474 147.157 42.0535 149.248 36.8758L148.849 37.8444ZM91.8368 41.2386C94.1602 44.1557 96.2266 47.0543 98.1887 50.0176L97.4479 48.9089C95.7064 46.329 93.8706 43.7899 91.8378 41.2376L91.8368 41.2386ZM64.0934 46.3268C62.9339 46.5526 61.8829 46.8707 60.9493 47.2858C62.0385 46.8015 63.2878 46.4496 64.6825 46.2218L64.0934 46.3268ZM70.6772 46.1926C71.0403 46.2249 71.4009 46.2634 71.7595 46.3064C72.1343 46.3514 72.507 46.402 72.878 46.4581C73.249 46.5143 73.6184 46.5762 73.9867 46.6429C72.8974 46.4454 71.7991 46.2924 70.6772 46.1926ZM68.8992 46.0808C67.7324 46.0372 66.534 46.0514 65.2892 46.1314L65.9077 46.0973C66.9325 46.0487 67.9268 46.0445 68.8992 46.0808ZM89.0293 43.3752C88.5997 43.7585 88.2041 44.1481 87.8306 44.551C88.0795 44.2825 88.3382 44.0199 88.6105 43.7613C88.7466 43.632 88.8862 43.5029 89.0293 43.3752ZM97.8355 38.2471C96.0941 38.929 94.3647 39.7747 92.5482 40.8233C94.5357 39.6759 96.4192 38.7717 98.3277 38.0584L97.8355 38.2471ZM108.423 35.8196C104.828 36.2084 101.783 36.8237 98.8209 37.8785L99.316 37.7073C102.124 36.7567 105.028 36.1868 108.423 35.8196ZM114.752 35.0601C115.13 35.1288 115.5 35.2109 115.861 35.3052C115.342 35.1695 114.803 35.0599 114.248 34.9764L114.752 35.0601ZM182.326 19.2195C183.159 24.0776 181.946 29.2826 182.509 34.2626C182.529 34.4577 182.554 34.6543 182.582 34.852L182.509 34.2626C182.059 30.2787 182.746 26.1505 182.612 22.1711C182.605 21.9724 182.596 21.7739 182.585 21.5759C182.563 21.1794 182.532 20.7844 182.49 20.3914C182.468 20.1951 182.444 19.9993 182.417 19.804C182.363 19.4131 182.297 19.0244 182.216 18.6379L182.326 19.2195ZM130.225 32.9448C130.247 33.0936 130.271 33.2418 130.294 33.3902C130.268 33.2215 130.241 33.0527 130.217 32.8836L130.225 32.9448ZM131.203 23.7029C130.02 25.2743 129.632 27.5879 129.979 30.9521C130.013 31.286 130.051 31.6189 130.092 31.9509L129.979 30.9521C129.955 30.7202 129.935 30.4924 129.918 30.2704C129.884 29.8264 129.865 29.402 129.859 28.9964C129.837 27.3727 130.043 26.0496 130.485 24.9749C130.596 24.7064 130.722 24.4537 130.862 24.2154C130.968 24.0366 131.08 23.8654 131.203 23.7029ZM154.609 16.2562C154.454 17.797 154.255 19.1925 154.097 20.2893C154.723 20.3114 155.307 20.3246 155.851 20.3292C155.307 20.3246 154.724 20.3104 154.098 20.2883C154.283 19.0088 154.521 17.3231 154.683 15.4743L154.609 16.2562ZM158.694 20.2484C158.501 20.2632 158.302 20.2756 158.097 20.2864C158.521 20.2642 158.917 20.2344 159.288 20.195L158.694 20.2484ZM180.634 14.5241C180.795 14.7471 180.939 14.9839 181.062 15.2331C181.426 15.972 181.711 16.7239 181.932 17.4865L181.755 16.9165C181.564 16.3485 181.335 15.7875 181.062 15.2331C181.021 15.1504 180.978 15.068 180.933 14.988C180.842 14.8272 180.742 14.6731 180.634 14.5241ZM113.871 16.5198C113.569 16.5419 113.265 16.5587 112.96 16.5694L112.479 16.581C112.946 16.5742 113.411 16.5536 113.871 16.5198ZM111.467 15.6513C111.878 15.6658 112.289 15.6744 112.701 15.6707L111.85 15.6649C111.722 15.6622 111.594 15.6558 111.467 15.6513ZM83.7901 11.6163C80.9195 11.9608 78.3531 13.0282 76.4469 15.2555L76.7708 14.8956C78.4196 13.1456 80.5134 12.1847 82.8457 11.7592C83.1568 11.7025 83.472 11.6555 83.791 11.6172L83.7901 11.6163ZM175.132 13.3017C174.387 13.4799 173.696 13.703 173.045 13.963L173.441 13.8122C173.974 13.6162 174.536 13.4443 175.132 13.3017ZM96.0486 13.0556C96.3531 13.136 96.6559 13.2179 96.9567 13.3007C96.3215 13.1259 95.6772 12.9552 95.027 12.793L96.0486 13.0556ZM176.24 12.2824C176.764 12.2828 177.275 12.3485 177.758 12.4964C177.62 12.4542 177.48 12.4176 177.338 12.3884C177.267 12.3738 177.195 12.3611 177.123 12.3495C176.835 12.3036 176.54 12.2826 176.24 12.2824ZM87.7356 11.5453C86.7228 11.4767 85.726 11.4653 84.7579 11.5278L85.2501 11.5025C86.0627 11.4707 86.8936 11.4883 87.7356 11.5453ZM182.678 35.4306L182.681 35.4491C182.71 35.607 182.743 35.7653 182.777 35.9247C182.742 35.7592 182.708 35.5946 182.678 35.4306ZM75.6718 20.7289L75.6748 20.7415C75.6955 20.8246 75.7175 20.9071 75.7394 20.9895C75.7164 20.9029 75.6936 20.8161 75.6718 20.7289ZM75.5769 20.3272L75.5231 20.0462C75.5229 20.0452 75.5223 20.0442 75.5221 20.0432C75.5386 20.1406 75.5569 20.2354 75.5769 20.3272Z" fill="#222222"/>
</svg>
